<?xml version="1.0" encoding="UTF-8"?>
<!-- Created with Inkscape (http://www.inkscape.org/) -->
<svg width="197.27mm" height="197.27mm" version="1.1" viewBox="0 0 197.27 197.27" xmlns="http://www.w3.org/2000/svg">
 <g transform="translate(-6.4614 -50.051)">
  <path d="m102.45 50.184-3.3032 7.7391-0.99064 5.8482 0.14831 1.8138-8.1571 1.0738-0.32608-1.7901-2.4706-5.393-5.1935-6.6203-5.1108 1.3694-1.188 8.3302 0.55707 5.9056 0.61237 1.7136-7.6011 3.1481-0.77825-1.6449-3.7822-4.5692-6.7303-5.0503-4.5816 2.6453 1.0082 8.354 2.0665 5.5599 1.0351 1.4966-6.5272 5.0085-1.1772-1.387-4.8359-3.4354-7.8083-3.1362-3.7414 3.7414 3.1362 7.8083 3.4354 4.8359 1.387 1.1772-5.0085 6.5272-1.4965-1.0351-5.5599-2.0665-8.354-1.0082-2.6453 4.5816 5.0503 6.7303 4.5692 3.7822 1.6449 0.77825-3.1481 7.6011-1.7136-0.61237-5.9056-0.55707-8.3302 1.188-1.3694 5.1108 6.6203 5.1935 5.393 2.4706 1.7901 0.32608-1.0738 8.1571-1.8138-0.14831-5.8482 0.99064-7.7391 3.3032v5.2912l7.7391 3.3032 5.8482 0.99064 1.8138-0.14831 1.0738 8.1571-1.7901 0.32607-5.393 2.4706-6.6203 5.194 1.3694 5.1103 8.3302 1.188 5.9056-0.55708 1.7136-0.61236 3.1481 7.6011-1.6449 0.77825-4.5692 3.7822-5.0503 6.7303 2.6453 4.5822 8.354-1.0087 5.5599-2.0665 1.4965-1.0351 5.0085 6.5272-1.387 1.1777-3.4354 4.8359-3.1362 7.8083 3.7414 3.7409 7.8083-3.1362 4.8359-3.4349 1.1772-1.3875 6.5272 5.0085-1.0351 1.4966-2.0665 5.5604-1.0082 8.354 4.5816 2.6453 6.7303-5.0503 3.7822-4.5697 0.77825-1.6449 7.6011 3.1486-0.61237 1.7131-0.55707 5.9056 1.188 8.3302 5.1108 1.3694 5.1935-6.6203 2.4706-5.393 0.32608-1.7901 8.1571 1.0744-0.14831 1.8133 0.99064 5.8482 3.3032 7.7391h5.2912l3.3032-7.7391 0.99063-5.8482-0.14831-1.8133 8.1571-1.0744 0.32607 1.7901 2.4706 5.393 5.194 6.6203 5.1103-1.3694 1.188-8.3302-0.55708-5.9056-0.61236-1.7131 7.6011-3.1486 0.77825 1.6449 3.7822 4.5697 6.7303 5.0503 4.5822-2.6453-1.0087-8.354-2.0665-5.5604-1.0351-1.4966 6.5272-5.0085 1.1777 1.3875 4.8359 3.4349 7.8083 3.1362 3.7409-3.7409-3.1362-7.8083-3.4349-4.8359-1.3875-1.1777 5.0085-6.5272 1.4966 1.0351 5.5604 2.0665 8.354 1.0087 2.6453-4.5822-5.0503-6.7303-4.5697-3.7822-1.6449-0.77825 3.1486-7.6011 1.7131 0.61236 5.9056 0.55708 8.3302-1.188 1.3694-5.1103-6.6203-5.194-5.393-2.4706-1.7901-0.32607 1.0744-8.1571 1.8133 0.14831 5.8482-0.99064 7.7391-3.3032v-5.2912l-7.7391-3.3032-5.8482-0.99064-1.8133 0.14831-1.0744-8.1571 1.7901-0.32608 5.393-2.4706 6.6203-5.1935-1.3694-5.1108-8.3302-1.188-5.9056 0.55707-1.7131 0.61237-3.1486-7.6011 1.6449-0.77825 4.5697-3.7822 5.0503-6.7303-2.6453-4.5816-8.354 1.0082-5.5604 2.0665-1.4966 1.0351-5.0085-6.5272 1.3875-1.1772 3.4349-4.8359 3.1362-7.8083-3.7409-3.7414-7.8083 3.1362-4.8359 3.4354-1.1777 1.387-6.5272-5.0085 1.0351-1.4966 2.0665-5.5599 1.0087-8.354-4.5822-2.6453-6.7303 5.0503-3.7822 4.5692-0.77825 1.6449-7.6011-3.1481 0.61236-1.7136 0.55708-5.9056-1.188-8.3302-5.1103-1.3694-5.194 6.6203-2.4706 5.393-0.32607 1.7901-8.1571-1.0738 0.14831-1.8138-0.99063-5.8482-3.3032-7.7391h-5.2912zm12.065 27.695a71.438 71.438 0 0 1 61.32 61.386h-42.149a30.106 30.106 0 0 0-19.171-19.173v-42.213zm-18.84 0.060978v42.167a30.106 30.106 0 0 0-19.107 19.157h-42.204a71.438 71.438 0 0 1 61.312-61.325zm9.4242 9.9751h5.1e-4a3.3246 3.694 0 0 1 3.3197 3.6964 3.3246 3.694 0 0 1-3.3244 3.6918h-0.00775a3.3246 3.694 0 0 1-3.3166-3.7011 3.3246 3.694 0 0 1 3.3285-3.6871zm-0.00311 17.177h5.2e-4a3.3246 3.694 0 0 1 3.3197 3.6964 3.3246 3.694 0 0 1-3.3244 3.6918h-0.00775a3.3246 3.694 0 0 1-3.3166-3.7011 3.3246 3.694 0 0 1 3.3285-3.6871zm0.56845 31.033a12.56 12.56 0 0 1 12.544 12.568 12.56 12.56 0 0 1-12.559 12.552h-0.03152a12.56 12.56 0 0 1-12.528-12.583 12.56 12.56 0 0 1 12.575-12.536zm-56.897 9.2325a3.694 3.3246 0 0 1 3.6871 3.329 3.694 3.3246 0 0 1-3.6964 3.3197 3.694 3.3246 0 0 1-3.6918-3.3244v-0.00775a3.694 3.3246 0 0 1 3.7011-3.3166zm97.522 0a3.694 3.3246 0 0 1 3.6871 3.329 3.694 3.3246 0 0 1-3.6964 3.3197 3.694 3.3246 0 0 1-3.6918-3.3244v-0.00775a3.694 3.3246 0 0 1 3.7011-3.3166zm-80.345 0.0031a3.694 3.3246 0 0 1 3.6871 3.329 3.694 3.3246 0 0 1-3.6964 3.3197 3.694 3.3246 0 0 1-3.6918-3.3244v-0.00775a3.694 3.3246 0 0 1 3.7011-3.3166zm97.522 0a3.694 3.3246 0 0 1 3.6871 3.329 3.694 3.3246 0 0 1-3.6964 3.3197 3.694 3.3246 0 0 1-3.6918-3.3244v-0.00775a3.694 3.3246 0 0 1 3.7011-3.3166zm-129.12 12.744h42.217a30.106 30.106 0 0 0 19.108 19.091v42.221a71.438 71.438 0 0 1-61.325-61.313zm99.273 0h42.217a71.438 71.438 0 0 1-61.325 61.313v-42.223a30.106 30.106 0 0 0 19.108-19.089zm-28.524 25.116h5.1e-4a3.3246 3.694 0 0 1 3.3197 3.6964 3.3246 3.694 0 0 1-3.3244 3.6918h-0.00775a3.3246 3.694 0 0 1-3.3166-3.7011 3.3246 3.694 0 0 1 3.3285-3.6871zm-0.00311 17.177h5.2e-4a3.3246 3.694 0 0 1 3.3197 3.6964 3.3246 3.694 0 0 1-3.3244 3.6918h-0.00775a3.3246 3.694 0 0 1-3.3166-3.7011 3.3246 3.694 0 0 1 3.3285-3.6871z" fill="#4ecdc4" stroke="#000" stroke-width="4"/>
 </g>
</svg>
